<?xml version="1.0" encoding="UTF-8" standalone="no"?>
<!-- Created with Inkscape (http://www.inkscape.org/) -->

<svg
   xmlns:dc="http://purl.org/dc/elements/1.1/"
   xmlns:cc="http://creativecommons.org/ns#"
   xmlns:rdf="http://www.w3.org/1999/02/22-rdf-syntax-ns#"
   xmlns:svg="http://www.w3.org/2000/svg"
   xmlns="http://www.w3.org/2000/svg"
   xmlns:sodipodi="http://sodipodi.sourceforge.net/DTD/sodipodi-0.dtd"
   xmlns:inkscape="http://www.inkscape.org/namespaces/inkscape"
   version="1.1"
   id="svg2"
   width="255"
   height="255"
   viewBox="0 0 255 255"
   sodipodi:docname="logo.svg"
   inkscape:version="0.92.3 (2405546, 2018-03-11)">
  <metadata
     id="metadata8">
    <rdf:RDF>
      <cc:Work
         rdf:about="">
        <dc:format>image/svg+xml</dc:format>
        <dc:type
           rdf:resource="http://purl.org/dc/dcmitype/StillImage" />
        <dc:title></dc:title>
      </cc:Work>
    </rdf:RDF>
  </metadata>
  <defs
     id="defs6" />
  <sodipodi:namedview
     pagecolor="#ffffff"
     bordercolor="#666666"
     borderopacity="1"
     objecttolerance="10"
     gridtolerance="10"
     guidetolerance="10"
     inkscape:pageopacity="0"
     inkscape:pageshadow="2"
     inkscape:window-width="1331"
     inkscape:window-height="713"
     id="namedview4"
     showgrid="false"
     inkscape:showpageshadow="false"
     fit-margin-top="20"
     fit-margin-left="20"
     fit-margin-right="20"
     fit-margin-bottom="20"
     inkscape:zoom="1.3567252"
     inkscape:cx="24.63983"
     inkscape:cy="144.70899"
     inkscape:window-x="35"
     inkscape:window-y="27"
     inkscape:window-maximized="1"
     inkscape:current-layer="svg2" />
  <rect
     style="fill:#ffffff;fill-opacity:1"
     id="rect4613"
     width="297.03879"
     height="280.08618"
     x="-19.900862"
     y="-10.344816" />
  <g
     id="g4520"
     transform="translate(2.9066897,4.5000079)">
    <path
       style="fill:#f3e9d6"
       d="m 108,218.93099 c -12.66837,-1.40612 -23.319398,-4.404 -33.968488,-9.56092 -8.068776,-3.90738 -10.855467,-5.95087 -18.158695,-13.31581 -8.890224,-8.96534 -12.8694,-15.56893 -16.25868,-26.98187 -6.041552,-20.34412 0.05496,-41.52569 14.59356,-50.7035 C 57.830416,116.08196 58,115.73447 58,110.598 v -5.37691 l -14.25,0.13946 C 31.580073,105.47964 28.989105,105.22749 26,103.63311 20.434482,100.66447 17.542791,96.927205 17.16594,92.215833 16.277573,81.109509 23.6148,72.183798 35,70.520761 c 5.106802,-0.745951 18.144017,1.603608 24.591711,4.431903 l 4.091712,1.794838 -0.462015,-7.199176 c -1.120488,-17.459574 7.664196,-35.071404 20.276126,-40.65026 6.559348,-2.901511 12.930809,-3.50265 15.976069,-1.507319 3.535107,2.316291 3.163127,4.751927 -1.558984,10.207903 -2.24696,2.596159 -4.49696,5.802823 -5,7.125919 -1.240374,3.26243 -1.150678,8.755496 0.217535,13.322186 l 1.132154,3.778794 10.617842,0.371499 c 5.83982,0.204325 10.80712,0.241802 11.03846,0.08328 0.85902,-0.588633 -4.21836,-5.161021 -7.01939,-6.321246 C 107.30555,55.298136 106,54.205078 106,53.530067 c 0,-1.876932 10.62559,0.08968 15.64644,2.89589 l 4.1522,2.320708 2.05783,-2.623333 2.05784,-2.623332 2.02061,2.5 c 1.11133,1.375 2.03061,3.071073 2.04284,3.769052 0.0158,0.902668 0.81618,1.047022 2.77224,0.5 5.20664,-1.456063 11.09361,-0.638317 15.26165,2.119959 3.85292,2.549744 5.54038,5.420536 2.50053,4.254036 -0.8183,-0.314011 -3.8558,-0.840288 -6.75,-1.169504 L 142.5,64.874969 l 6,2.631051 c 3.3,1.447078 7.27542,3.029672 8.83427,3.516877 1.55884,0.487204 4.7222,1.992233 7.02969,3.344508 5.01081,2.936532 6.07845,2.534141 10.93363,-4.120846 4.39279,-6.021208 5.03963,-9.294124 3.29231,-16.658679 -1.92201,-8.100853 -0.85202,-10.54173 4.63462,-10.572567 4.43037,-0.0249 14.16262,10.18186 16.17731,16.966054 3.21154,10.814457 1.66274,24.841463 -3.82754,34.664641 L 193.14079,99 l 5.17961,0.01981 c 21.46314,0.08208 33.73475,7.31547 33.83256,19.9423 0.0439,5.67029 -1.54284,8.74661 -6.37066,12.3511 -5.21521,3.89372 -19.31985,1.69535 -36.95088,-5.75921 -1.40415,-0.59368 -1.78008,0.18694 -2.37216,4.92577 -0.60911,4.87517 -0.42869,5.92591 1.34377,7.82575 1.12604,1.20696 3.30015,4.66948 4.83136,7.69448 3.89923,7.70319 4.58783,22.61746 1.51183,32.74452 -2.09816,6.90773 -8.05142,17.17275 -11.9698,20.63913 -1.17109,1.036 -1.84534,2.34303 -1.49833,2.90451 0.34701,0.56147 0.17154,0.73694 -0.38993,0.38993 -1.29683,-0.80148 -4.54898,2.7015 -3.54034,3.81339 0.4137,0.45604 0.20544,0.51521 -0.46279,0.13148 -0.66824,-0.38374 -2.92005,0.43067 -5.00403,1.80978 -5.526,3.65694 -14.70385,7.16057 -23.53632,8.98497 -9.78059,2.02023 -28.6905,2.74023 -39.74468,1.51328 z M 93.5,194 c -0.339919,-0.55 -1.153976,-0.99311 -1.809017,-0.98469 -0.715616,0.009 -0.592275,0.40223 0.309017,0.98469 1.921123,1.24153 2.267305,1.24153 1.5,0 z m 91.10131,-0.25 c 0.39564,-0.6875 0.3511,-0.9164 -0.099,-0.50868 -0.45007,0.40773 -1.53472,0.18273 -2.41032,-0.5 -1.40859,-1.0983 -1.43388,-1.03969 -0.21957,0.50868 1.63578,2.08577 1.79908,2.11569 2.72887,0.5 z m -35.25623,-7.29313 c -0.32569,-0.84872 -0.80663,-1.32866 -1.06875,-1.06653 -0.26213,0.26213 -0.17998,0.95654 0.18255,1.54313 0.98605,1.59546 1.56238,1.28551 0.8862,-0.4766 z M 84,185.62244 c 0,-0.20765 -0.7875,-0.99515 -1.75,-1.75 -1.586056,-1.24387 -1.621426,-1.2085 -0.377555,0.37756 C 83.178814,185.91575 84,186.44548 84,185.62244 Z m 56.27997,-53.99034 c -2.23911,-6.12078 0.52766,-17.38548 5.56211,-22.64565 5.34315,-5.58272 12.93958,-6.10512 17.31812,-1.19096 2.12186,2.38143 2.43931,3.65115 2.30838,9.23283 -0.0869,3.70572 -0.83876,7.79727 -1.75911,9.57324 -1.59821,3.084 -1.59349,3.09892 0.83407,2.63487 1.85957,-0.35548 2.7159,-1.45208 3.59335,-4.60157 2.98962,-10.7309 0.33946,-23.43958 -4.60198,-22.06847 -1.46742,0.40716 -1.65654,0.30234 -0.67815,-0.37588 2.95785,-2.05038 -6.20717,-3.890027 -11.18893,-2.2459 -3.22222,1.06343 -8.9156,5.05539 -7.21006,5.05539 0.42009,0 -0.19716,0.7875 -1.37166,1.75 -2.68939,2.20394 -6.90548,14.2284 -7.71947,22.01626 l -0.61922,5.92443 3.15626,-0.46324 c 2.73302,-0.40113 3.05167,-0.74915 2.37629,-2.59535 z M 106.02632,125.25 c 1.72592,-5.77708 2.40445,-21.41812 1.09957,-25.346455 C 103.50941,89.016173 90.530041,84.932675 84.226969,92.699211 79.024904,99.109103 76.230614,116.0533 80.25,116.81501 c 1.502436,0.28472 1.75,-0.48286 1.75,-5.42596 0,-15.779666 13.051539,-23.28412 20.808,-11.964311 4.5399,6.625551 4.5454,18.461481 0.0115,24.828711 -1.73526,2.43694 -1.85962,3.10744 -0.71125,3.83463 2.27126,1.43826 2.74243,1.09696 3.91804,-2.83808 z m 50.77055,-8.1392 c 0.31489,-0.94564 0.0221,-1.13827 -0.91714,-0.60329 -1.11433,0.63472 -1.13928,0.52685 -0.12973,-0.56081 1.90104,-2.04811 1.51029,-2.9467 -1.28138,-2.9467 -2.96957,0 -4.23237,2.37481 -2.42246,4.55562 1.48601,1.79053 4.08745,1.54695 4.75071,-0.44482 z M 97.439934,107.29593 C 98.129232,105.49965 96.367814,103 94.412739,103 c -2.347997,0 -3.622033,3.64785 -1.881818,5.38806 1.727539,1.72754 4.022969,1.21687 4.909013,-1.09213 z M 178.2716,81.995758 c 6.79601,-7.937163 10.83756,-22.150128 7.60787,-26.75469 -1.25913,-1.795132 -1.39246,-1.547783 -1.52833,2.835311 -0.17753,5.727109 -3.78555,14.070922 -8.31554,19.23029 -2.68522,3.058305 -3.04362,3.978743 -2.02644,5.204369 1.62098,1.953166 2.20985,1.88198 4.26244,-0.51528 z M 88.253939,54.174116 C 87.823745,44.594245 89.162977,38.253377 91.984849,36.509364 92.543182,36.164295 93,35.370249 93,34.744816 c 0,-2.364761 -6.769781,5.543414 -7.859761,9.181446 -1.158985,3.868346 -1.601113,19.27953 -0.582334,20.298309 0.306847,0.306848 1.361729,0.3477 2.344182,0.09078 1.598881,-0.418117 1.740703,-1.48203 1.351852,-10.141238 z"
       id="path4534"
       inkscape:connector-curvature="0" />
    <path
       style="fill:#cececf"
       d="M 110.95122,218.92858 C 86.117433,216.86994 66.860187,208.50036 53.831507,194.1032 43.119182,182.26569 37.857143,168.66009 37.857143,152.79965 c 0,-15.17645 6.263157,-28.38223 16.134514,-34.01942 3.966355,-2.26505 3.99299,-2.32064 4.000641,-8.34947 L 58,104.36151 50.75,105.26626 C 41.064803,106.4749 30.812816,105.57189 25.60658,103.05159 16.917504,98.845285 14.755737,89.211631 20.356405,79.654815 25.906224,70.184764 38.39235,68.055497 55.27063,73.700869 l 8.746799,2.92559 -0.609751,-6.063229 c -1.234758,-12.278173 2.986889,-25.681897 10.752729,-34.1399 7.231307,-7.875827 20.095154,-12.451575 25.341414,-9.014094 3.489769,2.286587 3.122349,4.951483 -1.359873,9.863107 -2.121928,2.325211 -4.371928,5.210573 -5,6.411916 -1.412443,2.701648 -1.466969,9.605405 -0.114325,14.47535 l 1.016468,3.659609 10.727959,0.374664 c 5.90037,0.206066 10.91269,0.249501 11.13849,0.09652 0.84026,-0.569288 -3.52729,-4.559669 -6.90949,-6.312801 -2.9059,-1.506246 -3.20148,-1.932563 -1.73877,-2.507871 2.95211,-1.161113 10.39499,0.487082 14.3647,3.181002 l 3.75344,2.547151 1.8932,-2.598943 c 2.46491,-3.383777 3.32961,-3.278111 5.32788,0.651058 0.90907,1.7875 1.73793,3.354804 1.84191,3.482898 0.10398,0.128095 1.73425,-0.218877 3.62282,-0.771048 4.42427,-1.293545 11.38704,0.314445 15.39469,3.555269 3.59788,2.909454 3.06117,3.779799 -1.52055,2.465779 -1.88494,-0.540594 -4.78014,-0.972217 -6.43377,-0.959163 -2.57658,0.02034 -2.14845,0.386847 2.9934,2.562537 3.3,1.39634 7.75062,3.187968 9.89027,3.981394 2.13964,0.793427 5.47845,2.424148 7.41957,3.623825 l 3.5293,2.181231 4.31265,-4.763468 c 5.47968,-6.052497 7.00345,-11.209426 5.34943,-18.104163 -2.3522,-9.805077 -0.004,-13.162851 6.99761,-10.00562 15.16502,6.838474 19.87433,32.08451 9.37355,50.250529 l -2.45669,4.25 4.79216,0.01981 c 8.44487,0.03491 18.6478,1.948842 23.83271,4.470702 6.82614,3.32013 9.77554,7.5093 10.20436,14.49375 0.40176,6.54382 -0.94906,9.55301 -5.75949,12.83027 -5.23456,3.5662 -16.19407,2.72942 -28.87976,-2.20503 -5.16687,-2.0098 -9.56835,-3.48016 -9.78105,-3.26745 -0.2127,0.2127 -0.64543,2.58525 -0.96163,5.27234 -0.52008,4.41974 -0.23416,5.39119 2.9984,10.18757 4.61595,6.84903 5.74317,10.71108 6.33301,21.69804 1.64143,30.57491 -22.02974,52.76549 -60.25007,56.48154 -10.99246,1.06877 -10.96057,1.06884 -24.49311,-0.053 z m 27.07501,-1.95063 C 173.01908,212.75733 194,192.88863 194,163.9714 c 0,-18.51636 -9.01503,-31.18857 -23.23139,-32.65583 -3.78279,-0.39042 -9.86598,0.35338 -20.99738,2.56738 -25.42863,5.05768 -31.20633,4.21459 -55.642966,-8.11951 -15.798813,-7.97426 -16.631085,-8.26967 -23.782867,-8.44154 -9.334357,-0.22432 -15.073992,1.67828 -20.267468,6.71838 -10.806133,10.487 -13.733905,29.38621 -7.407793,47.81841 3.039373,8.85573 6.142666,14.37504 7.582271,13.48531 0.6215,-0.3841 0.761377,-0.17532 0.339674,0.50701 -1.033662,1.6725 5.635738,9.39381 12.790734,14.80811 17.815102,13.48099 46.385395,19.72713 74.643415,16.31883 z m -35.4057,-18.96357 C 95.106596,195.61422 88.538122,191.08664 83.586224,184.89423 81.433647,182.2024 78.846147,180 77.836224,180 c -3.059285,0 -1.998992,-2.39304 1.863449,-4.20574 4.115466,-1.93144 5.7559,-1.51402 4.352847,1.1076 -1.178223,2.20154 2.166521,7.5045 7.104892,11.26455 13.063078,9.94613 29.880688,11.28004 46.805328,3.71243 5.66699,-2.53392 6.96855,-3.51997 6.51838,-4.93832 -0.99071,-3.12146 1.44696,-3.16629 4.52995,-0.0833 3.63221,3.63222 3.8682,5.40157 0.6114,4.58416 -1.61916,-0.40638 -4.0912,0.36923 -7.75,2.43157 -10.99193,6.19581 -27.40062,7.92707 -39.25194,4.14143 z m 53.25457,-12.91444 c -4.23251,-3.42727 -1.92542,-14.07657 4.27758,-19.74495 7.23364,-6.61017 17.14176,-8.62811 20.29062,-4.13248 7.71486,11.01451 -14.17749,32.29132 -24.5682,23.87743 z M 66.624765,172.53089 C 58.23924,169.54188 51.355355,159.41163 52.259399,151.39098 52.964361,145.13657 55.191762,143 61.007104,143 c 8.8987,0 16.945767,8.38654 17.787604,18.53799 0.557054,6.71735 -0.883108,9.94857 -5.087305,11.41417 -1.653217,0.57631 -3.051199,1.02809 -3.106626,1.00395 -0.05543,-0.0241 -1.844633,-0.66549 -3.976012,-1.42522 z M 144.75,159.9199 c -2.8388,-1.65345 -2.25602,-7.27398 1.15732,-11.16156 9.35814,-10.65834 24.80371,-9.38101 19.58361,1.61953 C 164.54558,152.37004 163.14839,154 162.38606,154 161.62373,154 161,154.40975 161,154.91055 c 0,1.26138 -9.93173,6.09628 -12.44634,6.05904 -1.12951,-0.0167 -2.84116,-0.48908 -3.80366,-1.04969 z M 88,152.29056 c -0.825,-0.30334 -2.259144,-1.2119 -3.186987,-2.01901 -0.927842,-0.80711 -2.234871,-1.12886 -2.904508,-0.715 -0.719892,0.44491 -0.959675,0.33526 -0.586662,-0.26829 0.346973,-0.56141 -0.962456,-3.06584 -2.909841,-5.56539 -6.072899,-7.79484 -4.296904,-14.55284 3.503181,-13.33028 C 87.831955,131.31996 96,141.18488 96,147.40346 c 0,3.76194 -4.155725,6.30062 -8,4.8871 z m 52.73085,-18.68808 c 0.12922,-0.12922 -0.21831,-1.78014 -0.77229,-3.66871 -2.67185,-9.10865 3.92045,-22.08859 12.68803,-24.98215 5.04734,-1.66577 9.09398,0.26682 11.45815,5.47218 2.30845,5.08267 2.31013,7.6862 0.009,14.34706 l -1.82075,5.27085 2.1034,-0.65563 c 2.83523,-0.88376 3.29329,-1.78434 4.53539,-8.91698 1.4217,-8.16401 1.35164,-9.24737 -0.92192,-14.25674 -1.40025,-3.08519 -2.92754,-4.69775 -5.44592,-5.75 -7.74803,-3.237331 -14.89611,-0.822148 -20.15584,6.81022 -3.3938,4.92473 -7.40832,18.01359 -7.40832,24.15393 0,3.63485 0.1127,3.76202 2.74795,3.10061 1.51137,-0.37933 2.85368,-0.79541 2.9829,-0.92464 z M 105.98851,125.75 c 0.65128,-1.7875 1.42939,-7.98961 1.72912,-13.78246 0.48559,-9.38473 0.31519,-10.98288 -1.56369,-14.665787 -1.15976,-2.273328 -3.52508,-5.1419 -5.25625,-6.374605 -3.894793,-2.773336 -10.449528,-3.105336 -14.09957,-0.714147 -3.664356,2.400567 -7.55058,11.046599 -8.595135,19.122369 -0.862064,6.66489 -0.824116,6.85818 1.52155,7.75 1.323115,0.50305 2.492112,0.91463 2.597771,0.91463 0.105658,0 0.02814,-2.06163 -0.172268,-4.58141 C 81.358931,103.47173 87.118486,94 93.958071,94 c 3.585408,0 8.836599,4.264327 10.677899,8.67119 2.9626,7.0905 0.73035,21.13028 -3.8053,23.93346 -0.834592,0.51581 -0.61145,0.97002 0.73571,1.49757 3.01238,1.17965 3.16481,1.09857 4.42213,-2.35222 z m 112.85386,-4.4508 c 2.87726,-3.22505 2.34634,-7.5613 -1.38263,-11.29251 -2.14625,-2.14754 -3.57241,-2.54239 -10.28359,-2.84716 -7.25325,-0.32939 -8.0124,-0.1682 -10.98396,2.33221 -1.7557,1.47732 -3.19219,3.4676 -3.19219,4.42284 0,4.73679 14.0453,11.73723 21,10.4668 1.375,-0.25117 3.55407,-1.63815 4.84237,-3.08218 z m -62.03827,-5.43 c 0.34785,-2.98981 -2.22494,-4.59475 -4.43085,-2.76401 -1.70145,1.41208 -1.75337,3.11469 -0.14406,4.724 1.91577,1.91577 4.23982,0.9201 4.57491,-1.95999 z m -59.433532,-8.0949 c 0.716631,-1.13609 0.628472,-2.07053 -0.301001,-3.19048 -1.771134,-2.13408 -3.778736,-1.99576 -5.032401,0.34673 -0.783578,1.46413 -0.643234,2.32052 0.580888,3.54465 1.837032,1.83703 3.286469,1.62327 4.752514,-0.7009 z M 51.988879,95.387773 c 4.831837,-1.933318 6.017543,-5.054073 3.73715,-9.836106 -1.768796,-3.709205 -6.439046,-6.276462 -13.071693,-7.185567 -5.828574,-0.798895 -11.00167,2.126272 -12.663097,7.160447 -1.395226,4.227575 -0.658268,6.803608 2.702728,9.447368 3.253058,2.558855 13.390598,2.776296 19.294912,0.413858 z M 184.98128,71.047482 c 2.29543,-5.823554 2.57658,-13.413242 0.62714,-16.930075 -1.21999,-2.200884 -1.35949,-1.857688 -1.82923,4.5 -0.52819,7.148775 -2.25132,11.129951 -8.08267,18.674407 -2.80949,3.634847 -2.85847,3.871754 -1.18319,5.722919 1.70761,1.886882 1.82436,1.83061 5.09843,-2.457312 1.84295,-2.413629 4.25923,-6.693101 5.36952,-9.509939 z M 71.562909,73.75 74.5,70.5 71.25,73.437091 C 68.220545,76.174872 67.540348,77 68.312909,77 c 0.1721,0 1.6346,-1.4625 3.25,-3.25 z m 15.815449,-9.703752 c 2.283351,-0.868128 2.423859,-1.249082 1.5651,-4.243398 -2.419032,-8.434671 -0.498167,-19.338219 4.35427,-24.716466 L 95.5,32.645474 92,34.58951 C 85.563874,38.164384 81.802057,49.525871 83.439388,60.444378 83.815125,62.94997 84.290678,65 84.496173,65 c 0.205495,0 1.502479,-0.429188 2.882185,-0.953752 z M 77.127555,36.25 c 1.243871,-1.586056 1.208501,-1.621426 -0.377555,-0.377555 -0.9625,0.754844 -1.75,1.542344 -1.75,1.75 0,0.823034 0.821186,0.293303 2.127555,-1.372445 z"
       id="path4532"
       inkscape:connector-curvature="0" />
    <path
       style="fill:#d0b0d8"
       d="M 103.6649,217.96287 C 74.892755,213.4649 54.517891,200.33278 44.225875,179.65292 33.824851,158.75403 36.868942,132.06369 50.873085,121.37074 53.301071,119.51683 55.897894,118 56.643802,118 57.656588,118 58,116.22266 58,110.98095 v -7.01905 l -2.693594,0.67604 c -4.87246,1.22291 -23.630147,0.91283 -27.506421,-0.4547 -4.612522,-1.62728 -9.500288,-7.068795 -10.33208,-11.502632 -1.69687,-9.045092 5.993211,-19.877414 15.078592,-21.239851 6.939604,-1.040658 16.045231,0.0084 24.329575,2.803006 l 7.376071,2.488214 -0.552484,-5.353057 C 62.434162,59.117435 66.890332,44.554673 74.477663,36.156404 80.202892,29.81926 88.62974,26.382684 97.178571,26.898683 98.939731,27.004985 102,29.572619 102,30.943969 102,31.384581 99.75,34.559795 97,38 c -4.813802,6.021988 -5,6.490477 -5,12.580406 0,3.479019 0.522232,7.471662 1.160515,8.872541 C 94.258131,61.861952 94.739148,62 102.03552,62 c 4.24296,0 9.12073,0.28125 10.83948,0.625 1.96538,0.393076 3.125,0.221992 3.125,-0.461045 0,-1.649125 -4.14308,-5.252582 -7.37378,-6.413364 -2.42327,-0.870674 -2.61667,-1.176431 -1.23368,-1.950392 2.5326,-1.417312 10.27348,0.162554 14.34956,2.928655 l 3.6708,2.491076 2.18277,-2.73745 c 2.48348,-3.114583 3.61479,-2.802807 5.39117,1.48574 1.08507,2.619594 1.58961,2.914952 3.8802,2.271456 4.46018,-1.252997 9.8014,-0.553994 14.06128,1.840192 2.23942,1.258628 4.07168,2.648651 4.07168,3.088941 0,0.440289 -2.8125,0.552549 -6.25,0.249464 l -6.25,-0.551062 6,2.628931 c 3.3,1.445912 7.575,3.21998 9.5,3.942374 1.925,0.722393 5.21743,2.331357 7.3165,3.575475 l 3.8165,2.262033 3.90064,-3.808868 c 7.18153,-7.012583 7.59655,-8.938626 5.30728,-24.630197 -1.5763,-10.804597 13.56777,-4.072275 19.57176,8.700656 4.62772,9.84506 3.66924,24.460293 -2.38806,36.413792 C 194.13608,96.691565 193,99.095535 193,99.293563 c 0,0.198028 1.31848,0.16654 2.92995,-0.06997 4.11144,-0.603431 19.71394,1.600847 23.99797,3.390377 C 227.22664,105.66279 232,112.1419 232,119 c 0,13.96651 -11.40438,17.44422 -32.97992,10.05706 -6.31395,-2.16181 -11.61958,-3.7909 -11.79028,-3.62019 -0.1707,0.1707 -0.66464,2.55147 -1.09764,5.2906 -0.66648,4.21612 -0.48395,5.34787 1.18967,7.37638 6.75309,8.1851 10.11491,23.67874 7.67993,35.39456 -4.36915,21.02197 -19.11516,35.58283 -43.1087,42.56743 -6.02819,1.75483 -10.62382,2.2128 -24.89306,2.48069 -9.625,0.1807 -20.1258,-0.0819 -23.3351,-0.58366 z M 150.5,215.12465 c 24.44678,-6.48803 39.91853,-21.8913 43.53705,-43.34432 2.78258,-16.497 -4.08943,-33.7187 -15.52847,-38.91535 -5.66323,-2.57275 -15.45164,-2.35619 -28.70251,0.63502 -19.78872,4.46704 -34.17949,3.12493 -48.81241,-4.55234 -22.084855,-11.58698 -27.309495,-13.362 -36.029709,-12.24077 -19.045284,2.4488 -29.982806,24.13151 -24.531881,48.63238 6.204628,27.88861 29.891394,46.95673 64.06793,51.57541 11.98604,1.61982 36.78845,0.65467 46,-1.79003 z M 105.74592,198.91433 C 97.127006,196.883 83.103746,187.05296 81.466683,181.89503 81.093478,180.71916 79.942049,180 78.432612,180 c -2.810547,0 -3.260589,-1.76914 -0.682612,-2.68338 0.9625,-0.34134 2.509144,-1.2713 3.436987,-2.06658 2.269345,-1.94512 4.149632,-0.76191 2.637367,1.65961 -0.927973,1.48592 -0.62585,2.48405 1.658383,5.47883 11.632117,15.25049 33.047183,18.83469 54.334293,9.09383 3.87353,-1.7725 5.23541,-2.91483 5.01639,-4.20767 -0.49233,-2.90608 0.59836,-2.93055 3.97512,-0.0892 3.71625,3.12702 3.931,3.81456 1.19146,3.81456 -1.11111,0 -2,-0.66667 -2,-1.5 0,-0.825 -0.43588,-1.5 -0.96862,-1.5 -0.53273,0 -0.71948,0.64921 -0.415,1.4427 0.69117,1.80115 -9.0987,6.92694 -17.31957,9.06821 -6.21033,1.61758 -17.5733,1.81223 -23.55089,0.40342 z M 159,186.32246 c -5.26369,-2.04735 -6.33871,-6.94675 -3.03289,-13.82246 2.36148,-4.91161 3.56573,-6.36297 8.03289,-9.68118 9.36809,-6.95863 19.61632,-3.45435 17.54029,5.99774 -2.12832,9.69016 -15.64499,20.18788 -22.54029,17.5059 z M 66.654261,172.29224 c -3.433074,-0.88492 -9.930794,-7.00748 -12.310192,-11.59945 -3.355651,-6.47603 -1.301158,-16.10403 3.66935,-17.19574 7.722793,-1.69621 15.945517,3.91181 19.249119,13.12819 2.487099,6.9385 2.24809,10.59141 -0.898902,13.7384 -2.535959,2.53596 -5.25657,3.07636 -9.709375,1.9286 z M 146.5,160.18507 c -7.18701,-1.49646 -3.02603,-12.31606 6.26872,-16.30026 5.49599,-2.35585 9.37979,-2.39489 12.1861,-0.12247 1.86939,1.51373 2.02612,2.15758 1.11109,4.5643 -0.9729,2.55892 -4.31314,5.97691 -9.33448,9.55176 -2.38768,1.69986 -7.55298,2.86437 -10.23143,2.30667 z M 88.036884,152.04733 C 84.316659,151.11077 75,139.66007 75,136.02426 75,132.6871 77.250381,131 81.701732,131 c 3.416643,0 11.248877,7.05233 13.281146,11.95866 2.451735,5.91902 -1.096159,10.56135 -6.945994,9.08867 z M 140.44292,126 c 0.0645,-9.60205 1.94131,-13.90308 8.12503,-18.61963 4.99974,-3.81349 9.9025,-3.65666 13.5572,0.43367 2.52707,2.82828 2.87056,3.97169 2.83941,9.45174 -0.0199,3.50694 -0.66063,7.32789 -1.46456,8.73422 -1.97661,3.45771 -1.85554,4 0.89301,4 2.83396,0 3.05169,-0.47154 4.67299,-10.12041 2.11872,-12.60924 -1.67348,-19.51745 -11.3102,-20.603647 -8.73639,-0.984718 -15.0768,4.414597 -19.50278,16.608037 -1.30118,3.5847 -2.63388,9.38877 -2.96158,12.89793 l -0.5958,6.3803 2.8451,-0.3311 2.8451,-0.33111 0.0571,-8.5 z m -33.83798,-2.7039 c 2.09891,-8.92019 1.81887,-21.54504 -0.5823,-26.251723 -3.85626,-7.558897 -12.644122,-10.938546 -18.657702,-7.175408 -4.148122,2.595784 -8.051219,10.878671 -9.157549,19.433531 -0.779408,6.02688 -0.67785,6.91053 0.890708,7.75 3.132382,1.6764 3.617642,1.04454 3.126147,-4.07055 -0.57341,-5.96759 1.622518,-12.54991 5.357293,-16.05855 3.459815,-3.250328 9.377111,-3.250328 12.836923,0 6.28498,5.90443 7.44498,19.50108 2.28273,26.75642 l -2.67717,3.76267 2.23648,1.19693 c 1.23007,0.65831 2.40392,1.02949 2.60856,0.82485 0.20464,-0.20464 0.98579,-2.98031 1.73588,-6.16817 z m 109.73814,0.59344 c 5.36377,-2.44389 5.87848,-9.45387 1.02868,-14.01001 -2.11812,-1.98988 -3.77938,-2.42862 -10.32034,-2.72567 -7.43851,-0.3378 -7.94614,-0.21973 -11.07479,2.57572 -2.58516,2.30983 -3.14544,3.44186 -2.64794,5.35008 0.76221,2.92353 5.72776,6.26625 12.3129,8.28882 6.01592,1.84773 7.6185,1.92577 10.70149,0.52106 z m -59.39613,-6.32562 C 158.21244,116.0391 156.83289,112 155.0466,112 c -3.3363,0 -5.5553,4.15797 -3.37993,6.33333 1.14912,1.14913 4.03731,0.72828 5.28028,-0.76941 z m -59.571084,-9.79516 c 0.838693,-1.3318 0.708272,-2.11319 -0.565275,-3.38674 -2.995707,-2.99571 -7.465121,0.91947 -4.764428,4.1736 1.554892,1.87353 3.869544,1.53181 5.329703,-0.78686 z m 92.338634,-7.1013 C 201.30367,85.270405 202.90689,63.133592 193.20295,52.5 188.81977,47.696896 184.91135,45 182.33376,45 c -3.32771,0 -3.70193,1.790488 -1.85993,8.899006 2.04681,7.898904 0.81691,12.449075 -5.16263,19.099759 -2.37116,2.637302 -4.3112,5.128652 -4.3112,5.536334 0,0.407682 1.82948,2.725988 4.0655,5.151791 4.38026,4.752012 9.93243,15.406815 9.93371,19.06311 0.001,3.23183 1.07083,2.75939 4.71529,-2.08254 z M 54.25,94.575098 c 2.894762,-1.900141 3.455281,-4.589869 1.841196,-8.835235 C 54.085192,80.463672 42.151095,76.452133 36.018139,78.992486 32.32045,80.524119 28.993227,85.293723 29.037007,89 c 0.03095,2.619963 2.503528,6.243894 4.997693,7.324856 3.095903,1.341754 17.390483,0.10447 20.2153,-1.749758 z M 78.44378,68.480079 c 2.352006,-1.378367 6.364339,-3.217563 8.916297,-4.087103 C 89.912035,63.523437 92,62.479348 92,62.072779 92,61.66621 91.494103,58.814515 90.875784,55.735678 89.31655,47.971679 90.332713,44.040309 95.530774,37.726273 97.988848,34.740473 100,31.585922 100,30.716161 100,28.520603 96.643512,27.676412 91.174708,28.49651 73.349399,31.16958 62.35202,51.40174 65.649107,75.456613 l 0.649108,4.735755 3.934596,-4.603084 c 2.164028,-2.531696 5.858964,-5.730838 8.210969,-7.109205 z"
       id="path4530"
       inkscape:connector-curvature="0" />
    <path
       style="fill:#a19c9a"
       d="M 103.6649,217.96287 C 74.892755,213.4649 54.517891,200.33278 44.225875,179.65292 33.824851,158.75403 36.868942,132.06369 50.873085,121.37074 53.301071,119.51683 55.897894,118 56.643802,118 c 0.949337,0 1.360294,-1.42501 1.369853,-4.75 0.0075,-2.6125 0.298242,-5.81316 0.64607,-7.11258 0.608609,-2.27363 0.47887,-2.33663 -3.446302,-1.67348 -8.292645,1.40104 -23.50214,0.92859 -27.699776,-0.86043 -8.794086,-3.748002 -11.728551,-9.912564 -9.070705,-19.055232 1.764917,-6.071102 6.127354,-10.591299 12.135225,-12.574076 5.321618,-1.756292 17.411255,-0.658622 26.306176,2.388449 l 7.384342,2.529603 -0.560755,-5.433195 C 62.434167,59.117478 66.869934,44.577251 74.477663,36.156404 80.202892,29.81926 88.62974,26.382684 97.178571,26.898683 98.939731,27.004985 102,29.572619 102,30.943969 102,31.384581 99.75,34.559795 97,38 c -4.760105,5.954814 -5,6.545266 -5,12.306461 0,3.328349 0.501947,7.433492 1.115438,9.122541 L 94.230876,62.5 105.51734,62.57614 c 12.78765,0.08627 13.56822,-0.663384 5.81229,-5.582046 -4.07729,-2.585741 -4.21162,-2.806898 -2.0365,-3.352817 3.10842,-0.780164 8.6634,0.84 13.02243,3.798122 l 3.55256,2.410828 1.58899,-2.425114 c 2.07092,-3.160616 3.27174,-3.059639 5.28268,0.444219 1.58941,2.769383 1.85997,2.852219 7.7673,2.378036 6.27096,-0.503373 10.66313,0.842951 13.36305,4.096157 1.06307,1.280927 0.39443,1.415904 -5.07284,1.024035 l -6.2973,-0.451363 6.38586,3.041901 C 152.39808,69.631144 155.71009,71 156.24588,71 c 0.53579,0 3.64362,1.422806 6.90629,3.16179 l 5.93213,3.161791 3.92498,-3.832647 c 7.20804,-7.038454 7.6222,-8.953587 5.33164,-24.653975 -1.5763,-10.804597 13.56777,-4.072275 19.57176,8.700656 4.62772,9.84506 3.66924,24.460293 -2.38806,36.413792 C 194.13608,96.691565 193,99.173472 193,99.466756 193,99.76004 196.73046,100 201.2899,100 c 14.95223,0 24.92253,4.15603 28.95855,12.0711 3.5721,7.0053 1.13852,15.92953 -5.24845,19.24665 -5.53893,2.87668 -15.40401,1.77095 -27.87414,-3.12429 -9.94696,-3.90474 -10.14948,-3.93991 -10.57926,-1.83721 -1.41795,6.93728 -1.22134,9.20363 1.05762,12.1915 6.78611,8.89705 9.82671,23.26278 7.39754,34.95066 -4.36915,21.02197 -19.11516,35.58283 -43.1087,42.56743 -6.02819,1.75483 -10.62382,2.2128 -24.89306,2.48069 -9.625,0.1807 -20.1258,-0.0819 -23.3351,-0.58366 z M 150.5,215.12465 c 24.44678,-6.48803 39.91853,-21.8913 43.53705,-43.34432 2.78258,-16.497 -4.08943,-33.7187 -15.52847,-38.91535 -5.66323,-2.57275 -15.45164,-2.35619 -28.70251,0.63502 -19.78872,4.46704 -34.17949,3.12493 -48.81241,-4.55234 -22.084855,-11.58698 -27.309495,-13.362 -36.029709,-12.24077 -19.045284,2.4488 -29.982806,24.13151 -24.531881,48.63238 6.204628,27.88861 29.891394,46.95673 64.06793,51.57541 11.98604,1.61982 36.78845,0.65467 46,-1.79003 z M 105.74592,198.91433 C 97.127006,196.883 83.103746,187.05296 81.466683,181.89503 81.093478,180.71916 79.942049,180 78.432612,180 c -2.810547,0 -3.260589,-1.76914 -0.682612,-2.68338 0.9625,-0.34134 2.509144,-1.2713 3.436987,-2.06658 2.269345,-1.94512 4.149632,-0.76191 2.637367,1.65961 -0.927973,1.48592 -0.62585,2.48405 1.658383,5.47883 11.632117,15.25049 33.047183,18.83469 54.334293,9.09383 3.87353,-1.7725 5.23541,-2.91483 5.01639,-4.20767 -0.49233,-2.90608 0.59836,-2.93055 3.97512,-0.0892 3.71625,3.12702 3.931,3.81456 1.19146,3.81456 -1.11111,0 -2,-0.66667 -2,-1.5 0,-0.825 -0.43588,-1.5 -0.96862,-1.5 -0.53273,0 -0.71948,0.64921 -0.415,1.4427 0.69117,1.80115 -9.0987,6.92694 -17.31957,9.06821 -6.21033,1.61758 -17.5733,1.81223 -23.55089,0.40342 z m 38.75318,-40.55809 c -4.82143,-4.82143 6.21262,-16.16945 13.47949,-13.86304 5.61802,1.78309 3.94073,9.49777 -2.90097,13.34302 -4.59428,2.58213 -8.33264,2.7659 -10.57852,0.52002 z m -60.859559,-9.65987 c -7.874221,-7.42634 -4.816457,-17.77558 3.9994,-13.53627 5.664257,2.72378 9.454814,12.34615 6.161059,15.6399 -2.228536,2.22854 -6.506062,1.34292 -10.160459,-2.10363 z M 140.44309,126 c 0.0643,-9.60207 1.94104,-13.903 8.12486,-18.61963 4.99974,-3.81349 9.9025,-3.65666 13.5572,0.43367 2.52707,2.82828 2.87056,3.97169 2.83941,9.45174 -0.0199,3.50694 -0.66063,7.32789 -1.46456,8.73422 -2.03805,3.5652 -1.84821,4.1738 1.19044,3.81642 2.30883,-0.27154 2.87345,-1.02561 3.98071,-5.31642 4.0362,-15.64089 -0.65175,-25.5 -12.1251,-25.5 -12.0693,0 -19.16579,10.08522 -22.0375,31.3187 l -0.6517,4.81869 3.26467,-0.31869 3.26466,-0.3187 0.0569,-8.5 z m -32.88959,-5.91474 c 3.80437,-18.89329 -1.19425,-30.671714 -13.519286,-31.855994 -4.188474,-0.40246 -5.110465,-0.101214 -8.322959,2.719394 -4.113801,3.611965 -7.151454,10.72268 -8.214141,19.22814 -0.630867,5.04929 -0.49088,5.75617 1.333263,6.73242 3.422129,1.83147 3.894667,1.28466 3.393867,-3.92727 -1.225667,-12.75576 8.084874,-22.290907 16.593785,-16.994087 7.526571,4.685307 9.631261,19.613227 3.900801,27.667167 l -2.69481,3.78746 2.23799,1.20988 c 1.23089,0.66543 2.54379,0.90337 2.91754,0.52875 0.37375,-0.37462 1.44203,-4.46775 2.37395,-9.09586 z m 111.25794,2.87578 c 3.10297,-2.89085 3.00922,-9.23129 -0.18371,-12.42422 -2.73857,-2.73857 -8.34313,-4.52324 -14.22985,-4.53124 -4.762,-0.006 -10.24491,3.24944 -11.56014,6.86475 -2.59208,7.1251 19.81366,15.82966 25.9737,10.09071 z m -61.86449,-5.39712 C 158.21244,116.0391 156.83289,112 155.0466,112 c -3.3363,0 -5.5553,4.15797 -3.37993,6.33333 1.14912,1.14913 4.03731,0.72828 5.28028,-0.76941 z m -59.571084,-9.79516 c 0.838693,-1.3318 0.708272,-2.11319 -0.565275,-3.38674 -2.995707,-2.99571 -7.465121,0.91947 -4.764428,4.1736 1.554892,1.87353 3.869544,1.53181 5.329703,-0.78686 z m 92.338634,-7.1013 C 201.30367,85.270405 202.90689,63.133592 193.20295,52.5 188.81977,47.696896 184.91135,45 182.33376,45 c -3.32771,0 -3.70193,1.790488 -1.85993,8.899006 2.08111,8.031283 0.79304,12.553667 -5.55338,19.497658 l -4.68043,5.121131 4.32375,4.775732 c 4.45458,4.920238 9.02245,13.387576 10.08308,18.690743 0.33173,1.65865 0.8844,3.00182 1.22815,2.98481 0.34375,-0.017 2.07153,-1.95274 3.8395,-4.30162 z M 52.84659,95.903634 c 1.576664,-0.549628 3.477222,-2.140165 4.223462,-3.534527 1.190816,-2.225061 1.116605,-2.973887 -0.606626,-6.121134 C 53.636521,81.085016 50.223321,78.981752 43.554821,78.293502 34.172297,77.325141 29,81.269199 29,89.392065 c 0,3.680563 2.214459,6.224554 6.64255,7.631026 3.217286,1.02189 12.861551,0.394343 17.20404,-1.119457 z M 69.836084,76.555656 C 72.741806,72.288431 80.881382,66.710189 87.560121,64.408958 L 92.620243,62.66544 91.310121,57.614791 C 88.876549,48.233126 89.715528,44.56806 96.003804,37.110538 98.201712,34.50395 100,31.643072 100,30.753031 100,28.522629 96.673087,27.671977 91.174708,28.49651 73.382979,31.164544 62.352537,51.405512 65.635924,75.360429 c 0.349758,2.551764 0.912258,4.636496 1.25,4.632738 0.337742,-0.0038 1.665314,-1.550638 2.95016,-3.437511 z"
       id="path4528"
       inkscape:connector-curvature="0" />
    <path
       style="fill:#9b5cd8"
       d="m 108.004,198.90058 c -10.358031,-2.02802 -19.21012,-7.399 -24.631395,-14.94502 -2.084467,-2.90143 -4.023879,-4.64287 -4.827313,-4.33457 -0.738645,0.28345 -1.620043,0.0671 -1.958662,-0.48082 -0.338619,-0.5479 0.403363,-1.3068 1.648849,-1.68645 1.245487,-0.37966 3.052021,-1.3818 4.014521,-2.22699 1.49405,-1.31195 1.75,-1.3239 1.75,-0.0817 0,0.80025 -0.480936,1.93593 -1.068746,2.52374 -0.758328,0.75832 0.569619,2.83837 4.572025,7.16145 7.78131,8.40474 14.224791,11.3865 25.882251,11.97718 10.41917,0.52793 17.72872,-0.8572 25.96709,-4.92066 6.14454,-3.0307 7.64738,-3.43271 7.64738,-2.04565 0,1.6095 -9.90085,6.2154 -17.58544,8.18078 -8.16292,2.08773 -14.01004,2.3277 -21.41056,0.87873 z m 39.11078,-10.4493 c -2.8918,-3.04812 -2.14356,-4.48006 0.80189,-1.53461 C 149.0625,188.0625 150.45,189 151,189 c 0.55,0 1,0.45 1,1 0,1.79557 -2.44902,1.01918 -4.88522,-1.54872 z m -2.61568,-30.09504 c -4.82143,-4.82143 6.21262,-16.16945 13.47949,-13.86304 5.61802,1.78309 3.94073,9.49777 -2.90097,13.34302 -4.59428,2.58213 -8.33264,2.7659 -10.57852,0.52002 z m -60.859559,-9.65987 c -8.084464,-7.62463 -4.745257,-17.90512 4.296978,-13.2292 3.869219,2.00085 7.054741,7.00169 7.059743,11.08283 0.0078,6.34524 -5.750669,7.43356 -11.356721,2.14637 z M 126,135.23053 c -4.29461,-0.33065 -16.89157,-3.19345 -19.15865,-4.35402 -1.53419,-0.78539 -1.53942,-1.28156 -0.0696,-6.6128 2.30857,-8.37362 2.23286,-22.74828 -0.14503,-27.533404 -2.48912,-5.00897 -6.843634,-7.948647 -12.592496,-8.50104 -4.188474,-0.40246 -5.110465,-0.101214 -8.322959,2.719394 -4.114252,3.61236 -7.15147,10.72281 -8.214499,19.23101 l -0.705236,5.64451 -6.64576,-0.16209 c -3.655168,-0.0892 -7.938075,0.19774 -9.517571,0.63753 l -2.871812,0.79963 0.674659,-6.29963 L 59.105705,104.5 H 43.802857 c -12.843767,0 -15.83221,-0.28902 -18.59707,-1.79855 -11.070226,-6.044016 -9.161565,-23.422465 3.249359,-29.585565 4.196012,-2.083684 5.761472,-2.317233 12.422934,-1.853363 9.764808,0.679971 23.818581,5.20635 24.690036,7.95206 0.544246,1.714769 1.261897,1.25341 5.571313,-3.581646 8.723937,-9.788039 22.798782,-14.554666 38.610581,-13.07597 4.3547,0.407245 7.25,0.301351 7.25,-0.265164 0,-1.261839 -3.7965,-4.658832 -7.5,-6.710776 l -3,-1.662165 5.68981,0.367851 c 4.00684,0.259045 6.85,1.135632 9.61223,2.963584 l 3.92241,2.595733 1.94299,-2.602417 c 2.16825,-2.904131 3.91696,-2.466933 5.36483,1.341269 0.85864,2.258377 1.2386,2.356143 6.86963,1.767584 5.28857,-0.552765 6.4759,-0.321101 10.52941,2.054412 2.51278,1.472587 4.56869,2.792288 4.56869,2.93267 0,0.140382 -3.0375,0.119505 -6.75,-0.04639 -7.32255,-0.327217 -7.3565,-0.368597 3.25,3.96109 12.21694,4.987085 16.25392,7.380437 21.39145,12.68208 5.41655,5.589576 10.58191,14.762874 11.7199,20.813673 0.75593,4.01936 1.52914,4.06018 4.7352,0.25 2.41818,-2.87385 2.86137,-3 10.53967,-3 19.08451,0 29.92906,5.73897 31.69335,16.77221 0.68289,4.2706 -0.7088,9.41161 -3.2523,12.01417 C 226.36942,130.78971 220.38902,133 216.92646,133 212.64895,133 203.2613,130.48036 194.35061,126.94066 190.27914,125.3233 186.73465,124 186.47397,124 c -0.26068,0 -0.5056,1.9125 -0.54426,4.25 -0.0618,3.73875 -1.67639,9.97085 -1.85942,7.17726 C 183.95338,133.64289 175.53403,130 171.52697,130 c -3.69774,0 -3.74454,-0.0487 -3.1243,-3.25 0.34631,-1.7875 0.90203,-6.44184 1.23493,-10.34298 C 170.63105,104.76494 166.32301,99 156.62963,99 c -11.58691,0 -18.90697,9.64462 -21.63089,28.5 -1.26721,8.77178 -0.79076,8.36247 -8.99874,7.73053 z m 92.81144,-12.26949 c 3.10297,-2.89085 3.00922,-9.23129 -0.18371,-12.42422 -2.73857,-2.73857 -8.34313,-4.52324 -14.22985,-4.53124 -4.762,-0.006 -10.24491,3.24944 -11.56014,6.86475 -2.59208,7.1251 19.81366,15.82966 25.9737,10.09071 z M 52.84659,95.903634 c 1.576664,-0.549628 3.477222,-2.140165 4.223462,-3.534527 1.190816,-2.225061 1.116605,-2.973887 -0.606626,-6.121134 -2.914939,-5.32374 -6.276727,-7.330022 -13.358405,-7.972167 -7.136093,-0.647078 -10.497025,0.64778 -12.690335,4.889172 -3.250508,6.285791 -1.15922,11.829416 5.227864,13.858113 3.217286,1.02189 12.861551,0.394343 17.20404,-1.119457 z m 88.19425,35.783686 c -1.8374,-5.27077 -1.22802,-11.10064 1.75774,-16.81603 4.29277,-8.21731 11.51204,-11.91615 17.25681,-8.84165 4.85566,2.59868 6.44989,13.00232 3.12632,20.40173 -1.7514,3.8992 -1.84497,3.94902 -11.43294,6.08655 l -9.66708,2.15516 z m 16.02873,-14.27114 c 0.95288,-1.14815 1.02584,-2.04215 0.26526,-3.25 -1.49134,-2.36833 -4.48106,-2.68669 -5.97999,-0.63678 -2.77564,3.79592 2.69958,7.51981 5.71473,3.88678 z m -66.781134,5.245 c -6.728202,-3.88227 -7.253465,-4.43405 -7.836716,-8.23228 -0.689454,-4.48985 0.82175,-11.39044 3.334203,-15.224929 0.892586,-1.362259 3.105903,-3.096479 4.918481,-3.853823 2.79857,-1.169317 3.792622,-1.169317 6.591192,0 8.300864,3.468324 11.301504,19.016352 5.368954,27.819662 -1.22919,1.82399 -2.894061,3.39199 -3.699718,3.48445 -0.805658,0.0925 -4.710036,-1.70443 -8.676396,-3.99308 z M 97.5,106.5 c 0,-2.66667 -0.333333,-3 -3,-3 -2.401168,0 -3.067367,0.47645 -3.337492,2.38691 -0.380606,2.69183 1.365073,4.24888 4.337492,3.86882 1.498727,-0.19164 2,-1.00764 2,-3.25573 z"
       id="path4526"
       inkscape:connector-curvature="0" />
    <path
       style="fill:#6c4097"
       d="m 108.004,198.90058 c -10.358031,-2.02802 -19.21012,-7.399 -24.631395,-14.94502 -2.084467,-2.90143 -4.023879,-4.64287 -4.827313,-4.33457 -0.738645,0.28345 -1.620043,0.0671 -1.958662,-0.48082 -0.338619,-0.5479 0.403363,-1.3068 1.648849,-1.68645 1.245487,-0.37966 3.052021,-1.3818 4.014521,-2.22699 1.49405,-1.31195 1.75,-1.3239 1.75,-0.0817 0,0.80025 -0.480936,1.93593 -1.068746,2.52374 -0.758328,0.75832 0.569619,2.83837 4.572025,7.16145 7.78131,8.40474 14.224791,11.3865 25.882251,11.97718 10.41917,0.52793 17.72872,-0.8572 25.96709,-4.92066 6.14454,-3.0307 7.64738,-3.43271 7.64738,-2.04565 0,1.6095 -9.90085,6.2154 -17.58544,8.18078 -8.16292,2.08773 -14.01004,2.3277 -21.41056,0.87873 z m 39.11078,-10.4493 c -2.8918,-3.04812 -2.14356,-4.48006 0.80189,-1.53461 C 149.0625,188.0625 150.45,189 151,189 c 0.55,0 1,0.45 1,1 0,1.79557 -2.44902,1.01918 -4.88522,-1.54872 z m 37.7078,-65.16681 c 0.5876,-18.85918 -2.48813,-29.224022 -11.72568,-39.514098 -3.75325,-4.1809 -13.05822,-10.730699 -15.2876,-10.760988 -0.37988,-0.0052 -0.0452,1.228116 0.74384,2.740616 2.17568,4.170769 1.78733,4.563818 -2.30314,2.331027 C 151.4911,75.483374 143.17366,72 141.73,72 c -0.6073,0 0.16904,1.328962 1.72521,2.953248 2.11131,2.203736 2.95246,4.234078 3.31432,8 C 147.0928,86.317628 146.87869,88 146.12723,88 c -0.61998,0 -1.12931,-0.5625 -1.13186,-1.25 -0.012,-3.231535 -8.57954,-9.909964 -15.11939,-11.785569 -6.41596,-1.840072 -17.06618,4.072077 -18.41733,10.223824 l -0.69633,3.170402 -1.34573,-2.429328 c -2.32204,-4.19181 -1.75008,-8.74969 1.50669,-12.006455 l 2.92328,-2.923281 -2.42599,-0.608886 c -2.51296,-0.630712 -7.17059,-0.154145 -11.30445,1.156667 -3.623895,1.149108 -2.264929,-1.431042 2.79013,-5.297374 4.86291,-3.719371 4.3447,-3.896779 -6.712292,-2.297924 -12.623509,1.825376 -23.771355,9.343484 -29.522281,19.90983 -3.435677,6.312471 -6.516991,18.134774 -6.877142,26.386044 -0.161994,3.71137 -0.684459,6.74887 -1.161032,6.75 -0.476573,10e-4 -0.565292,-2.81045 -0.197153,-6.24795 l 0.669345,-6.25 H 43.802847 c -17.149601,0 -20.23431,-0.87956 -23.843331,-6.798549 C 15.650563,90.634534 18.790062,79.117942 26.369719,74.186969 30.030098,71.805697 31.467045,71.5 39,71.5 c 10.438653,0 25.505561,4.3668 26.563065,7.698699 0.55131,1.737024 1.245952,1.292839 5.576354,-3.565763 8.723937,-9.788039 22.798782,-14.554666 38.610581,-13.07597 4.3547,0.407245 7.25,0.301351 7.25,-0.265164 0,-1.261839 -3.7965,-4.658832 -7.5,-6.710776 l -3,-1.662165 5.68981,0.367851 c 4.00684,0.259045 6.85,1.135632 9.61223,2.963584 l 3.92241,2.595733 1.94299,-2.602417 c 2.16825,-2.904131 3.91696,-2.466933 5.36483,1.341269 0.85864,2.258377 1.2386,2.356143 6.86963,1.767584 5.28857,-0.552765 6.4759,-0.321101 10.52941,2.054412 2.51278,1.472587 4.56869,2.792288 4.56869,2.93267 0,0.140382 -3.0375,0.119505 -6.75,-0.04639 -5.55203,-0.248099 -6.30631,-0.109087 -4.25,0.783268 1.375,0.596695 4.3,1.897102 6.5,2.889793 2.2,0.992691 5.575,2.37316 7.5,3.067708 12.40011,4.474013 24.1977,18.116861 26.61344,30.776044 0.46152,2.41849 1.04073,3.15298 2.15054,2.7271 1.10921,-0.42564 1.25646,-0.23951 0.5459,0.69004 -0.53516,0.70009 -0.77533,4.74638 -0.53372,8.99175 l 0.43929,7.71886 7.64228,2.90845 c 12.54919,4.77591 15.35032,5.49159 21.81864,5.57458 7.55148,0.0969 11.19962,-2.16977 13.13823,-8.16307 1.90771,-5.89776 0.24467,-11.19514 -4.89594,-15.59531 C 219.9494,103.40887 214.55505,101.90931 201,101.0133 l -10.5,-0.69407 8.70078,-0.15962 c 19.4036,-0.35595 30.57988,5.36285 32.37101,16.56396 0.98524,6.16137 -2.3472,12.56929 -7.63747,14.68603 -2.18614,0.87472 -5.36323,1.5904 -7.06021,1.5904 -4.22904,0 -13.65034,-2.53455 -22.5235,-6.05934 C 190.27914,125.3233 186.73465,124 186.47397,124 c -0.26068,0 -0.5056,1.9125 -0.54426,4.25 -0.0386,2.3375 -0.39375,5.07089 -0.78911,6.07419 -0.39535,1.00331 -0.53846,-3.96456 -0.31802,-11.03972 z M 52.767052,103.36656 c 6.017351,-0.62894 6.065172,-0.65915 6.727041,-4.250001 0.366635,-1.989107 1.96294,-6.716361 3.547346,-10.505009 2.038996,-4.875671 2.612592,-7.389482 1.963049,-8.603164 C 63.853011,77.856831 49.851461,73.161182 42.233204,72.371663 27.956619,70.892108 18.153961,78.993082 19.281559,91.339035 20.255785,102.00572 30.518597,105.69198 52.767052,103.36656 Z M 118.90728,75.324483 c 7.49477,-3.952881 15.62655,-2.349492 22.94848,4.524883 C 143.70142,81.582215 145.36551,83 145.55374,83 c 1.26967,0 -2.27871,-6.432231 -4.64832,-8.42613 C 139.30744,73.229258 138,71.816545 138,71.434508 c 0,-1.328373 8.53114,0.351125 13.5,2.657701 2.75,1.276568 5.45,2.512274 6,2.746014 0.55,0.23374 -0.35,-1.021097 -2,-2.788527 -2.99618,-3.209413 -8.29628,-6.036076 -11.37212,-6.065009 -0.89534,-0.0084 -2.29912,-0.439683 -3.11952,-0.958359 -2.5623,-1.619941 0.46095,-3.385798 5.71929,-3.340586 l 4.77235,0.04103 -3.49423,-1.465912 c -3.37747,-1.416927 -9.47524,-1.315597 -13.2139,0.219582 -1.28282,0.526756 -1.86748,0.06649 -2.34811,-1.848506 -1.09709,-4.371136 -3.01419,-5.083237 -4.43705,-1.648131 -1.47712,3.566073 -1.49517,3.570673 -4.18357,1.066051 C 121.22797,57.632084 115.79663,55 113.4027,55 c -1.44345,0 -1.16902,0.645881 1.40113,3.297607 4.0048,4.131901 4.31519,7.021353 0.65558,6.102849 -2.83508,-0.71156 -10.91203,1.233173 -12.35251,2.974185 -0.66692,0.80607 0.5335,1.167553 4.231,1.274074 2.83916,0.08179 6.47763,0.66282 8.08549,1.291171 l 2.92339,1.142457 -3.42224,1.708829 c -3.85287,1.923852 -6.36961,6.231168 -5.4091,9.257476 0.5878,1.851982 0.81719,1.754785 2.81228,-1.19161 1.19475,-1.764439 4.15556,-4.254089 6.57956,-5.532555 z m 22.13356,56.362837 c -1.8374,-5.27077 -1.22802,-11.10064 1.75774,-16.81603 4.29277,-8.21731 11.51204,-11.91615 17.25681,-8.84165 4.85566,2.59868 6.44989,13.00232 3.12632,20.40173 -1.7514,3.8992 -1.84497,3.94902 -11.43294,6.08655 l -9.66708,2.15516 z m 16.02873,-14.27114 c 0.95288,-1.14815 1.02584,-2.04215 0.26526,-3.25 -1.49134,-2.36833 -4.48106,-2.68669 -5.97999,-0.63678 -2.77564,3.79592 2.69958,7.51981 5.71473,3.88678 z m -66.781134,5.245 c -6.728202,-3.88227 -7.253465,-4.43405 -7.836716,-8.23228 -0.689454,-4.48985 0.82175,-11.39044 3.334203,-15.224929 0.892586,-1.362259 3.105903,-3.096479 4.918481,-3.853823 2.79857,-1.169317 3.792622,-1.169317 6.591192,0 8.300864,3.468324 11.301504,19.016352 5.368954,27.819662 -1.22919,1.82399 -2.894061,3.39199 -3.699718,3.48445 -0.805658,0.0925 -4.710036,-1.70443 -8.676396,-3.99308 z M 97.5,106.5 c 0,-2.66667 -0.333333,-3 -3,-3 -2.401168,0 -3.067367,0.47645 -3.337492,2.38691 -0.380606,2.69183 1.365073,4.24888 4.337492,3.86882 1.498727,-0.19164 2,-1.00764 2,-3.25573 z"
       id="path4524"
       inkscape:connector-curvature="0" />
    <path
       style="fill:#2d272c"
       d="m 109,198.90752 c -3.025,-0.52715 -8.20129,-2.22131 -11.502865,-3.7648 -6.171604,-2.88523 -14.874219,-10.60472 -16.018004,-14.20847 -0.354692,-1.11754 -1.395097,-1.9581 -2.312013,-1.86791 -3.526172,0.34682 -3.454914,-0.13521 0.303226,-2.05122 4.117233,-2.09909 5.57015,-1.97377 3.6694,0.3165 -2.634937,3.1749 10.389596,15.02273 20.037576,18.22728 10.34494,3.43604 27.38642,1.56524 37.69863,-4.13853 4.60356,-2.54626 6.12405,-2.94688 6.12405,-1.61356 0,0.95119 -11.96068,6.65009 -17,8.09998 -5.53541,1.59263 -15.01197,2.04422 -21,1.00073 z m 38.11478,-10.45624 c -3.46874,-3.65626 -1.96355,-4.04657 1.85373,-0.4807 1.78365,1.66618 2.63291,3.02165 1.88725,3.01214 -0.74567,-0.01 -2.42911,-1.14865 -3.74098,-2.53144 z m -6.12875,-57.48502 c -1.48341,-3.58124 -0.78185,-11.52664 1.38832,-15.72328 3.64523,-7.04909 11.17932,-11.47158 16.60771,-9.74867 3.11127,0.98748 6.00986,6.34031 6.0142,11.10647 0.004,4.51227 -1.60046,10.18755 -3.44346,12.17936 C 160.57379,129.83819 145.82781,134 143.05797,134 c -0.44843,0 -1.38081,-1.36518 -2.07194,-3.03374 z M 158,116.16482 c 0,-4.19352 -5.1454,-5.63017 -7.09794,-1.98182 -0.99379,1.85692 -0.83581,2.45223 1.05768,3.98548 2.59052,2.09768 6.04026,0.95334 6.04026,-2.00366 z m -66.5,6.80272 c -3.85,-2.16842 -7.422232,-4.08895 -7.938293,-4.26783 -0.516061,-0.17888 -0.910813,-3.24613 -0.877228,-6.8161 C 82.780654,101.66072 87.245297,95 94.00147,95 c 7.47338,0 13.08832,10.33261 11.38919,20.95838 -0.65926,4.12284 -3.97535,10.12917 -5.89066,10.6696 -0.55,0.15519 -4.15,-1.49201 -8,-3.66044 z M 97.5,106.5 c 0,-2.66361 -0.334855,-3 -2.986305,-3 -2.085792,0 -3.091324,0.54532 -3.334573,1.80841 -0.624664,3.24362 0.641527,4.84485 3.565192,4.50856 C 97.069083,109.54957 97.5,109.03088 97.5,106.5 Z"
       id="path4522"
       inkscape:connector-curvature="0" />
  </g>
</svg>
